<?xml version="1.0" standalone="no"?>
<!DOCTYPE svg PUBLIC "-//W3C//DTD SVG 1.1//EN" "http://www.w3.org/Graphics/SVG/1.1/DTD/svg11.dtd">
<svg xmlns="http://www.w3.org/2000/svg">
<defs >
<font id="Cuprum" horiz-adv-x="452" ><font-face
    font-family="Cuprum"
    units-per-em="1000"
    panose-1="0 0 5 0 0 0 0 0 0 0"
    ascent="895"
    descent="-260"
    alphabetic="0" />
<glyph unicode=" " horiz-adv-x="250" />
<glyph unicode="!" horiz-adv-x="260" d="M112 185L183 700H323L212 185H112ZM68 -10L89 110H209L188 -10H68Z" />
<glyph unicode="&quot;" horiz-adv-x="370" d="M316 465L333 700H453L386 465H316ZM146 465L163 700H283L216 465H146Z" />
<glyph unicode="#" horiz-adv-x="590" d="M80 0L144 195H54L68 275H172L221 425H124L139 505H249L313 700H428L364 505H454L518 700H633L569 505H659L644 425H540L491 275H588L574 195H464L400 0H285L349 195H259L195 0H80ZM276 275H387L436 425H325L276 275Z" />
<glyph unicode="$" horiz-adv-x="465" d="M184 -90L198 -10H193Q141 -10 100 -4T36 10L46 65L211 66L254 308Q227 322 200 338T152 379T123 439T123 530Q137 605 188 652T324 708L339 790H409L395 709Q435 708 467 702T516 690L506 635H381L339 392Q366 378 392
362T438 322T466 265T466 180Q453 104 406 57T269 -4L254 -90H184ZM284 85Q310 99 325 123T346 180Q351 211 343 232T317 269L284 85ZM276 432L309 623Q255 597 243 530Q237 495 247 472T276 432Z" />
<glyph unicode="%" horiz-adv-x="720" d="M105 0L618 700H738L225 0H105ZM538 -10Q467 -10 432 31T409 140Q421 208 470 249T591 290Q662 290 696 249T719 140Q707 73 658 32T538 -10ZM550 60Q573 60 592 79T619 140Q627 181 614 200T578 220Q556 220 537 201T509
140Q502 99 515 80T550 60ZM252 410Q181 410 146 451T123 560Q135 628 184 669T305 710Q376 710 410 669T433 560Q421 493 372 452T252 410ZM264 480Q287 480 306 499T333 560Q341 601 328 620T292 640Q270 640 251 621T223 560Q216 519 229 500T264 480Z" />
<glyph unicode="&amp;" horiz-adv-x="545" d="M208 -10Q129 -10 90 40T66 180Q74 225 87 266T113 330H208L181 180Q173 133 179 108T200 74T226 65Q241 65 257 75T290 106T323 160Q285 231 261 284T223 378T208 456T213 530Q227 613 285 661T430 710Q483 710 524
704T586 690L576 635H436Q402 635 372 607T333 530Q327 496 328 461T343 382T388 275L453 390H573L444 170L535 0H405L369 68Q348 42 325 25T273 -1T208 -10Z" />
<glyph unicode="&apos;" horiz-adv-x="200" d="M146 465L163 700H283L216 465H146Z" />
<glyph unicode="(" horiz-adv-x="266" d="M176 -190Q129 -115 109 -31T89 134T99 280Q111 345 140 426T219 591T342 750L392 720Q328 615 290 512T229 280Q207 153 208 49T237 -160L176 -190Z" />
<glyph unicode=")" horiz-adv-x="266" d="M22 -190L-28 -160Q36 -55 74 49T135 280Q158 408 156 511T126 720L188 750Q235 675 255 591T276 426T265 280Q253 215 224 134T145 -31T22 -190Z" />
<glyph unicode="*" horiz-adv-x="450" d="M217 310L139 357L222 474L108 500L146 592L274 563L298 700H398L374 563L512 592L518 500L394 474L435 357L341 310L300 428L217 310Z" />
<glyph unicode="+" horiz-adv-x="450" d="M195 90L225 260H75L89 340H239L269 510H359L329 340H479L465 260H315L285 90H195Z" />
<glyph unicode="," horiz-adv-x="195" d="M18 -120L59 110H179L98 -120H18Z" />
<glyph unicode="-" horiz-adv-x="380" d="M75 260L89 340H409L395 260H75Z" />
<glyph unicode="." horiz-adv-x="200" d="M38 -10L59 110H179L158 -10H38Z" />
<glyph unicode="/" horiz-adv-x="420" d="M0 0L423 700H543L120 0H0Z" />
<glyph unicode="0" horiz-adv-x="530" d="M263 -10Q214 -10 177 8T118 68T92 179T106 350Q130 485 172 563T269 676T390 710Q439 710 476 692T535 632T560 521T546 350Q523 215 481 136T384 24T263 -10ZM275 60Q292 60 312 72T352 117T391 205T426 350Q442 438
442 494T434 583T410 627T377 640Q360 640 341 628T301 583T261 495T226 350Q211 262 210 206T218 117T243 73T275 60Z" />
<glyph unicode="1" horiz-adv-x="305" d="M115 0L224 620H119L129 680Q153 688 197 694T293 700H358L235 0H115Z" />
<glyph unicode="2" horiz-adv-x="420" d="M15 0L30 90Q111 167 170 225T267 329T328 416T358 500Q370 571 348 603T276 635H136L146 690Q170 698 214 704T310 710Q411 710 453 658T478 500Q470 453 442 404T369 303T268 196T149 80H399L385 0H15Z" />
<glyph unicode="3" horiz-adv-x="435" d="M173 -10Q121 -10 80 -4T16 10L26 65H166Q230 65 266 95T313 190Q326 261 301 293T212 326H132L146 405H216Q272 405 307 435T352 525Q361 578 338 606T266 635H136L146 690Q170 698 214 704T310 710Q404 710 445 661T472
525Q462 469 429 431T350 372L349 368Q382 357 403 330T432 267T433 190Q416 93 353 42T173 -10Z" />
<glyph unicode="4" horiz-adv-x="485" d="M285 0L314 170H54L70 260L398 700H528L449 250H504L489 170H434L405 0H285ZM179 250H329L376 520H372L179 250Z" />
<glyph unicode="5" horiz-adv-x="465" d="M203 -10Q151 -10 110 -4T46 10L56 65H196Q260 65 296 97T345 200Q358 275 333 307T244 340H114L178 700H528L515 625H285L248 415H278Q394 415 439 362T465 200Q446 95 383 43T203 -10Z" />
<glyph unicode="6" horiz-adv-x="475" d="M243 -10Q146 -10 104 42T80 200L119 420Q145 570 214 640T380 710Q433 710 474 704T536 690L526 635H396Q361 635 331 615T277 547T237 410Q261 418 288 421T334 425Q420 425 460 372T481 205Q462 96 402 43T243 -10ZM255
60Q289 60 318 93T361 205Q375 288 358 321T277 355H227L200 200Q187 125 204 93T255 60Z" />
<glyph unicode="7" horiz-adv-x="430" d="M105 0Q152 143 224 295T394 620H129L143 700H523L507 610Q410 438 341 291T225 0H105Z" />
<glyph unicode="8" horiz-adv-x="500" d="M248 -10Q139 -10 95 40T66 180Q75 229 99 264T157 324T229 363V367Q203 376 181 397T147 453T144 535Q158 614 218 662T375 710Q473 710 515 662T544 535Q536 488 513 454T459 398T399 367V363Q432 349 457 325T493 265T496
180Q480 90 419 40T248 -10ZM260 60Q301 60 333 90T376 180Q386 236 365 267T306 320Q261 298 229 267T186 180Q176 120 197 90T260 60ZM322 409Q357 421 385 452T424 535Q432 584 412 612T362 640Q332 640 302 612T264 535Q254 483 272 452T322 409Z" />
<glyph unicode="9" horiz-adv-x="475" d="M218 -10Q166 -10 125 -4T61 10L71 65H201Q236 65 266 85T321 154T361 290Q337 283 310 279T263 275Q177 275 137 329T117 495Q136 604 197 657T355 710Q453 710 494 658T518 500L479 280Q453 130 385 60T218 -10ZM320
345H370L398 500Q411 575 394 607T342 640Q308 640 280 607T237 495Q222 413 239 379T320 345Z" />
<glyph unicode=":" horiz-adv-x="200" d="M107 380L128 500H248L227 380H107ZM38 -10L59 110H179L158 -10H38Z" />
<glyph unicode=";" horiz-adv-x="190" d="M18 -120L59 110H179L98 -120H18ZM107 380L128 500H248L227 380H107Z" />
<glyph unicode="&lt;" horiz-adv-x="405" d="M365 5L75 200L93 305L453 500L432 380L200 257L199 252L387 125L365 5Z" />
<glyph unicode="=" horiz-adv-x="450" d="M59 170L74 255H464L449 170H59ZM90 345L105 430H495L480 345H90Z" />
<glyph unicode="&gt;" horiz-adv-x="405" d="M40 5L62 125L294 252L295 257L107 380L128 500L418 305L400 200L40 5Z" />
<glyph unicode="?" horiz-adv-x="395" d="M137 185Q147 241 168 278T214 342T265 394T309 448T336 520Q346 576 323 605T251 635H121L131 690Q155 698 199 704T295 710Q389 710 430 660T456 520Q447 469 426 434T377 371T321 317T271 260T237 185H137ZM93 -10L114
110H234L213 -10H93Z" />
<glyph unicode="@" horiz-adv-x="850" d="M424 -90Q233 -90 149 12T99 310Q134 505 251 607T545 710Q668 710 746 667T855 546T869 365Q852 268 813 207T706 118T535 90L526 120H521Q499 101 474 91T414 80Q372 80 338 104T289 176T287 300Q302 385 335 438T423
515T555 540Q596 540 635 534T696 520L632 155Q655 155 678 173T723 237T759 365Q782 496 723 568T532 640Q450 640 385 606T275 498T209 310Q189 198 210 126T293 20T457 -15H597L587 -70Q563 -77 520 -83T424 -90ZM456 150Q475 150 490 156T514 170L567 470H542Q510
470 484 455T438 402T407 300Q398 245 403 212T424 165T456 150Z" />
<glyph unicode="A" horiz-adv-x="540" d="M15 0L318 700H468L525 0H400L386 175H214L140 0H15ZM244 255H383L367 540H363L244 255Z" />
<glyph unicode="B" horiz-adv-x="530" d="M243 -10Q187 -10 147 -6T71 10L191 690Q231 701 272 705T370 710Q483 710 527 661T557 525Q549 480 517 439T436 377L435 373Q491 352 515 305T528 190Q517 125 484 81T392 13T243 -10ZM201 65H256Q320 65 356 96T404
195Q417 266 392 298T303 330H248L201 65ZM261 405H306Q355 405 388 434T431 520Q441 576 418 605T346 635H301L261 405Z" />
<glyph unicode="C" horiz-adv-x="455" d="M278 -10Q201 -10 154 21T95 131T106 350Q131 490 171 568T267 678T395 710Q448 710 489 704T551 690L541 635H421Q379 635 342 611T276 525T226 350Q207 238 215 176T253 90T331 65H451L441 10Q418 3 375 -3T278 -10Z" />
<glyph unicode="D" horiz-adv-x="545" d="M243 -10Q187 -10 147 -6T71 10L191 690Q231 701 272 705T370 710Q453 710 503 676T569 564T561 350Q538 215 495 136T389 24T243 -10ZM201 65H256Q296 65 331 89T394 176T441 350Q461 463 455 524T422 610T356 635H301L201 65Z" />
<glyph unicode="E" horiz-adv-x="475" d="M70 0L193 700H558L544 620H299L261 405H476L462 325H247L204 80H449L435 0H70Z" />
<glyph unicode="F" horiz-adv-x="455" d="M70 0L193 700H558L544 620H299L258 390H463L449 310H244L190 0H70Z" />
<glyph unicode="G" horiz-adv-x="525" d="M298 -10Q211 -10 160 21T96 131T106 350Q131 490 171 568T270 678T405 710Q458 710 499 704T561 690L551 635H421Q379 635 342 611T276 525T226 350Q207 238 215 176T253 90T331 65H356L412 380H532L466 10Q443 3 399
-3T298 -10Z" />
<glyph unicode="H" horiz-adv-x="560" d="M70 0L193 700H313L259 395H439L493 700H613L490 0H370L425 315H245L190 0H70Z" />
<glyph unicode="I" horiz-adv-x="260" d="M70 0L193 700H313L190 0H70Z" />
<glyph unicode="J" horiz-adv-x="375" d="M98 -10Q68 -10 44 -4T1 10L11 65H111Q139 65 163 80T206 134T237 240L318 700H438L357 240Q341 150 308 95T223 15T98 -10Z" />
<glyph unicode="K" horiz-adv-x="520" d="M70 0L193 700H313L257 380L478 700H613L367 355L510 0H375L248 330L190 0H70Z" />
<glyph unicode="L" horiz-adv-x="445" d="M70 0L193 700H313L204 80H449L435 0H70Z" />
<glyph unicode="M" horiz-adv-x="760" d="M50 0L213 700H343L417 225H421L663 700H793L710 0H595L651 474H647L449 85H339L279 474H275L165 0H50Z" />
<glyph unicode="N" horiz-adv-x="570" d="M70 0L193 700H313L422 240H427L508 700H623L500 0H380L271 460H266L185 0H70Z" />
<glyph unicode="O" horiz-adv-x="550" d="M273 -10Q221 -10 182 8T119 68T92 179T106 350Q130 485 172 563T272 676T400 710Q453 710 492 692T553 632T580 521T566 350Q543 215 501 136T401 24T273 -10ZM285 60Q313 60 342 84T399 172T446 350Q461 436 462 492T453
581T425 626T387 640Q360 640 331 616T274 528T226 350Q211 264 211 208T220 119T247 74T285 60Z" />
<glyph unicode="P" horiz-adv-x="515" d="M70 0L191 690Q231 701 272 705T370 710Q453 710 500 685T562 605T561 460Q544 365 511 308T428 226T310 200Q299 200 272 203T227 210L190 0H70ZM239 280H294Q332 280 360 296T408 351T441 460Q453 528 446 566T417 619T356
635H301L239 280Z" />
<glyph unicode="Q" horiz-adv-x="555" d="M273 -10Q221 -10 182 8T119 68T92 179T106 350Q130 485 172 563T272 676T400 710Q453 710 492 692T553 632T580 521T566 350Q547 238 512 168T440 60Q485 60 510 54T557 40L548 -10H273ZM285 60Q313 60 342 84T399 172T446
350Q461 436 462 492T453 581T425 626T387 640Q360 640 331 616T274 528T226 350Q210 260 210 203T221 115T249 72T285 60Z" />
<glyph unicode="R" horiz-adv-x="535" d="M70 0L191 690Q231 701 272 705T370 710Q453 710 500 686T562 608T562 470Q551 403 530 360T479 291T414 250L505 0H370L294 225H229L190 0H70ZM243 305H298Q354 305 390 340T442 470Q453 533 446 569T417 620T356 635H301L243
305Z" />
<glyph unicode="S" horiz-adv-x="465" d="M193 -10Q141 -10 100 -4T36 10L46 65H186Q261 65 298 94T346 180Q352 215 341 238T307 277T256 307T201 337T152 378T122 438T123 530Q137 613 198 661T360 710Q413 710 454 704T516 690L506 635H366Q317 635 284 607T243
530Q236 493 247 469T281 427T331 396T386 366T435 326T466 268T466 180Q450 90 386 40T193 -10Z" />
<glyph unicode="T" horiz-adv-x="450" d="M165 0L274 620H119L133 700H563L549 620H394L285 0H165Z" />
<glyph unicode="U" horiz-adv-x="550" d="M273 -10Q201 -10 158 15T100 95T102 240L183 700H303L222 240Q210 170 215 131T239 76T285 60Q313 60 337 76T380 131T412 240L493 700H613L532 240Q516 150 483 95T398 15T273 -10Z" />
<glyph unicode="V" horiz-adv-x="520" d="M185 0L138 700H263L285 155H289L503 700H628L335 0H185Z" />
<glyph unicode="W" horiz-adv-x="750" d="M140 0L138 700H263L259 195H263L425 570H525L555 195H559L733 700H858L610 0H480L445 390H441L270 0H140Z" />
<glyph unicode="X" horiz-adv-x="490" d="M10 0L218 360L148 700H273L322 440L463 700H588L398 360L480 0H355L295 285L135 0H10Z" />
<glyph unicode="Y" horiz-adv-x="480" d="M180 0L217 210L128 700H253L303 358L473 700H598L337 210L300 0H180Z" />
<glyph unicode="Z" horiz-adv-x="435" d="M20 0L33 75L389 620H134L148 700H538L525 625L169 80H424L410 0H20Z" />
<glyph unicode="[" horiz-adv-x="285" d="M38 -180L200 740H415L403 670H308L170 -110H265L253 -180H38Z" />
<glyph unicode="\" horiz-adv-x="420" d="M300 0L123 700H243L420 0H300Z" />
<glyph unicode="]" horiz-adv-x="285" d="M-31 -180L-19 -110H75L213 670H118L130 740H345L183 -180H-31Z" />
<glyph unicode="^" horiz-adv-x="475" d="M184 395L109 450L308 700H413L524 450L429 395L344 595H339L184 395Z" />
<glyph unicode="_" horiz-adv-x="320" d="M-14 -80L0 0H320L305 -80H-14Z" />
<glyph unicode="`" horiz-adv-x="200" d="M183 560L115 690H220L253 560H183Z" />
<glyph unicode="a" horiz-adv-x="490" d="M208 -10Q158 -10 124 15T79 98T84 250Q101 345 134 402T221 484T349 510Q402 510 438 503T509 480L425 0H340L330 30H325Q306 15 278 3T208 -10ZM260 60Q279 60 294 66T319 80L382 440H337Q307 440 282 424T237 367T204
250Q191 175 195 134T217 77T260 60Z" />
<glyph unicode="b" horiz-adv-x="495" d="M233 -10Q181 -10 145 -3T73 20L193 700H313L275 485Q293 496 315 503T364 510Q419 510 455 485T503 402T499 250Q482 155 448 98T361 16T233 -10ZM200 60H245Q275 60 300 76T346 134T379 250Q392 325 387 366T365 424T322
440Q303 440 288 434T264 420L200 60Z" />
<glyph unicode="c" horiz-adv-x="395" d="M248 -10Q178 -10 136 15T81 98T84 250Q101 345 133 402T215 484T329 510Q367 510 401 504T456 490L447 440H337Q307 440 282 424T237 367T204 250Q191 175 196 134T223 77T280 60H390L381 10Q358 3 322 -3T248 -10Z" />
<glyph unicode="d" horiz-adv-x="495" d="M208 -10Q158 -10 124 15T79 98T84 250Q101 345 132 402T209 484T309 510Q335 510 356 503T390 485L428 700H548L425 0H340L330 30H325Q306 15 278 3T208 -10ZM260 60Q279 60 292 66T319 80L379 420Q372 428 359 434T327
440Q302 440 279 424T237 367T204 250Q191 175 195 134T217 77T260 60Z" />
<glyph unicode="e" horiz-adv-x="465" d="M263 -10Q186 -10 141 15T81 98T84 250Q101 345 134 402T218 484T339 510Q425 510 467 468T497 355Q484 280 427 243T276 205H196Q182 126 206 93T295 60H405L396 10Q373 3 337 -3T263 -10ZM208 275H288Q322 275 346 296T377
355Q385 400 369 422T323 445Q296 445 275 432T237 382T208 275Z" />
<glyph unicode="f" horiz-adv-x="340" d="M2 -210Q-27 -210 -56 -204T-103 -190L-94 -140H-24Q-4 -140 14 -132T46 -102T67 -40L148 415H93L106 490H161L168 530Q181 600 208 636T273 686T353 700Q383 700 417 694T469 680L461 630H381Q361 630 343 622T310 592T288
530L281 490H416L406 435Q382 428 347 422T273 415H268L187 -40Q175 -110 148 -146T83 -196T2 -210Z" />
<glyph unicode="g" horiz-adv-x="490" d="M172 -210Q135 -210 101 -204T46 -190L55 -140H165Q221 -140 256 -106T307 15Q291 4 268 -3T218 -10Q163 -10 127 15T79 98T84 250Q101 345 134 402T221 484T349 510Q402 510 438 503T509 480L432 40Q416 -50 383 -105T297
-185T172 -210ZM260 60Q279 60 294 66T319 80L382 440H337Q307 440 282 424T237 367T204 250Q191 175 195 134T217 77T260 60Z" />
<glyph unicode="h" horiz-adv-x="510" d="M70 0L193 700H313L274 480Q296 495 322 502T379 510Q422 510 454 497T502 450T506 350L445 0H325L386 350Q393 385 385 404T359 432T322 440Q303 440 288 434T264 420L190 0H70Z" />
<glyph unicode="i" horiz-adv-x="260" d="M70 0L158 500H278L190 0H70ZM168 560L189 680H309L288 560H168Z" />
<glyph unicode="j" horiz-adv-x="265" d="M2 -210Q-27 -210 -51 -204T-93 -190L-84 -140H-14Q3 -140 19 -130T48 -97T67 -40L163 500H283L187 -40Q175 -110 148 -146T83 -196T2 -210ZM173 560L194 680H314L293 560H173Z" />
<glyph unicode="k" horiz-adv-x="460" d="M70 0L193 700H313L240 285L398 500H528L351 265L450 0H320L233 245L190 0H70Z" />
<glyph unicode="l" horiz-adv-x="260" d="M70 0L193 700H313L190 0H70Z" />
<glyph unicode="m" horiz-adv-x="740" d="M65 0L153 500H238L247 470H252Q271 485 300 497T374 510Q412 510 437 500T477 470Q503 489 536 499T614 510Q654 510 686 497T733 450T736 350L675 0H555L616 350Q623 385 615 404T591 432T557 440Q538 440 523 436T494
425Q496 414 496 394T491 350L430 0H310L371 350Q378 385 370 404T347 432T317 440Q298 440 283 434T259 420L185 0H65Z" />
<glyph unicode="n" horiz-adv-x="505" d="M65 0L153 500H238L247 470H252Q271 485 300 497T374 510Q417 510 449 497T497 450T501 350L440 0H320L381 350Q388 385 380 404T354 432T317 440Q298 440 283 434T259 420L185 0H65Z" />
<glyph unicode="o" horiz-adv-x="480" d="M238 -10Q173 -10 133 15T80 98T84 250Q101 345 133 402T215 484T329 510Q394 510 434 485T487 402T484 250Q467 155 434 98T352 16T238 -10ZM249 55Q272 55 293 71T332 130T364 250Q378 328 375 370T356 428T318 445Q296
445 275 429T236 370T204 250Q190 173 193 131T211 72T249 55Z" />
<glyph unicode="p" horiz-adv-x="490" d="M29 -200L153 500H238L247 470H252Q271 485 299 497T369 510Q419 510 453 485T499 402T494 250Q477 155 445 98T368 16T268 -10Q242 -10 222 -3T187 15L149 -200H29ZM250 60Q275 60 298 76T341 134T374 250Q387 325 382
366T360 424T317 440Q298 440 285 434T259 420L199 80Q205 73 218 67T250 60Z" />
<glyph unicode="q" horiz-adv-x="490" d="M269 -200L307 15Q290 4 267 -3T218 -10Q163 -10 127 15T79 98T84 250Q101 345 134 402T221 484T349 510Q402 510 438 503T509 480L389 -200H269ZM260 60Q279 60 294 66T319 80L382 440H337Q307 440 282 424T237 367T204
250Q191 175 195 134T217 77T260 60Z" />
<glyph unicode="r" horiz-adv-x="360" d="M65 0L153 500H238L246 460H251Q269 475 298 487T373 500H438L423 415H313Q294 415 279 409T254 395L185 0H65Z" />
<glyph unicode="s" horiz-adv-x="415" d="M168 -10Q131 -10 97 -4T41 10L50 60H160Q216 60 248 76T287 130Q292 156 278 172T240 201T187 225T136 255T100 300T95 370Q109 453 164 481T314 510Q352 510 386 504T441 490L432 440H322Q281 440 252 425T217 380Q212
354 226 338T264 309T317 285T368 255T404 210T409 140Q399 80 370 48T291 3T168 -10Z" />
<glyph unicode="t" horiz-adv-x="365" d="M228 -10Q186 -10 153 3T106 53T103 160L148 415H93L106 490H161L182 610H302L281 490H416L406 435Q382 428 347 422T273 415H268L223 160Q216 120 222 99T241 69T270 60H360L351 10Q338 5 317 1T272 -7T228 -10Z" />
<glyph unicode="u" horiz-adv-x="505" d="M218 -10Q176 -10 143 3T95 50T91 150L153 500H273L211 150Q202 98 223 79T275 60Q294 60 309 66T334 80L408 500H528L440 0H355L345 30H340Q321 15 292 3T218 -10Z" />
<glyph unicode="v" horiz-adv-x="470" d="M160 0L103 500H223L255 125H259L423 500H543L310 0H160Z" />
<glyph unicode="w" horiz-adv-x="650" d="M115 0L103 500H223L222 150H226L350 400H440L476 150H480L603 500H723L535 0H405L370 245H366L245 0H115Z" />
<glyph unicode="x" horiz-adv-x="430" d="M10 0L174 255L103 500H228L272 325L378 500H503L344 255L420 0H295L247 185L135 0H10Z" />
<glyph unicode="y" horiz-adv-x="505" d="M187 -210Q150 -210 116 -204T61 -190L70 -140H180Q236 -140 271 -105T323 20Q302 5 275 -2T218 -10Q176 -10 143 3T95 50T91 150L153 500H273L211 150Q202 98 223 79T275 60Q294 60 309 66T334 80L408 500H528L447 40Q431
-50 398 -105T312 -185T187 -210Z" />
<glyph unicode="z" horiz-adv-x="400" d="M20 0L32 70L314 425H104L118 500H468L455 430L173 75H388L375 0H20Z" />
<glyph unicode="{" horiz-adv-x="300" d="M268 -180Q201 -180 158 -167T98 -117T93 -10L116 120Q127 180 111 207T63 245L75 315Q111 326 136 353T172 440L195 570Q208 640 237 676T315 726T430 740L418 670Q384 670 355 650T315 570L296 460Q286 405 268 372T226
319T174 282V278Q196 262 213 242T236 188T232 100L213 -10Q205 -54 213 -75T239 -103T280 -110L268 -180Z" />
<glyph unicode="|" horiz-adv-x="260" d="M34 -200L193 700H313L154 -200H34Z" />
<glyph unicode="}" horiz-adv-x="300" d="M-31 -180L-19 -110Q3 -110 23 -104T59 -76T83 -10L102 100Q112 155 130 188T172 241T224 278V282Q202 299 185 319T162 372T166 460L185 570Q192 610 184 631T159 661T118 670L130 740Q198 740 241 727T301 677T305 570L282
440Q272 380 288 353T335 315L323 245Q287 234 262 207T226 120L203 -10Q191 -80 161 -116T84 -166T-31 -180Z" />
<glyph unicode="~" horiz-adv-x="460" d="M67 194Q81 277 111 325T211 373Q241 373 262 361T299 332T329 304T361 291Q384 291 396 311T412 366H492Q480 280 448 235T347 189Q319 189 298 201T260 229T228 257T197 269Q175 269 164 249T147 194H67Z" />
<glyph unicode="&#xa0;" horiz-adv-x="250" />
<glyph unicode="&#xa1;" horiz-adv-x="260" d="M60 0L170 515H270L200 0H60ZM174 590L195 710H315L294 590H174Z" />
<glyph unicode="&#xa2;" horiz-adv-x="395" d="M214 -60L223 -9Q162 -5 126 22T79 105T84 250Q100 341 130 397T207 480T314 509L325 570H395L384 506Q426 500 456 490L447 440H372L305 60H390L381 10Q365 5 342 0T293 -7L284 -60H214ZM236 68L301 434Q269 422
244 381T204 250Q188 165 197 123T236 68Z" />
<glyph unicode="&#xa3;" horiz-adv-x="435" d="M45 0L55 60Q72 70 85 86T108 131T127 210L145 315H90L104 395H159L178 500Q194 590 225 635T307 695T430 710Q460 710 484 704T526 690L516 635H416Q389 635 366 625T325 587T298 500L279 395H424L410 315H265L251
234Q239 167 218 134T174 84V80H429L415 0H45Z" />
<glyph unicode="&#xa4;" horiz-adv-x="520" d="M102 125L52 185L134 255Q126 270 124 297T126 350Q131 376 142 403T168 445L110 515L181 575L239 510Q256 521 287 530T355 540Q393 540 419 531T459 510L541 575L590 515L508 445Q516 430 518 403T516 350Q512
324 500 297T474 255L532 185L462 125L403 190Q386 179 356 170T288 160Q251 160 224 169T183 190L102 125ZM301 235Q331 235 361 264T401 350Q411 406 391 435T341 465Q311 465 281 436T241 350Q231 294 251 265T301 235Z" />
<glyph unicode="&#xa5;" horiz-adv-x="480" d="M180 0L214 195H99L113 275H205L196 325H122L136 405H181L128 700H253L303 358L473 700H598L440 405H486L472 325H398L371 275H463L449 195H334L300 0H180Z" />
<glyph unicode="&#xa6;" horiz-adv-x="260" d="M34 -200L99 170H219L154 -200H34ZM124 310L189 680H309L244 310H124Z" />
<glyph unicode="&#xa7;" horiz-adv-x="465" d="M167 -210Q122 -210 85 -204T26 -190L35 -140H160Q220 -140 254 -114T296 -50Q302 -19 286 1T243 38T184 70T127 108T88 165T84 250Q94 306 130 344T211 405Q189 420 172 438T147 483T146 550Q158 618 219 664T385
710Q430 710 467 704T526 690L517 640H392Q340 640 307 614T266 550Q261 519 275 499T316 462T373 430T428 392T465 335T469 250Q459 193 424 156T347 100Q370 85 388 66T414 18T416 -50Q404 -117 342 -163T167 -210ZM278 135Q304 150 322 177T349 250Q354 278
344 299T316 336T274 365Q249 350 231 323T204 250Q199 223 208 202T237 164T278 135Z" />
<glyph unicode="&#xa8;" horiz-adv-x="310" d="M280 570L301 690H411L390 570H280ZM120 570L141 690H251L230 570H120Z" />
<glyph unicode="&#xa9;" horiz-adv-x="840" d="M416 -20Q304 -20 228 26T119 156T106 350Q126 460 187 543T341 673T546 720Q659 720 735 674T843 544T856 350Q837 240 776 157T622 27T416 -20ZM452 130Q409 130 377 139T324 172T299 239T306 350Q318 418 338
461T387 527T451 560T530 570Q571 570 600 564T651 550L643 500H538Q510 500 487 490T446 447T416 350Q405 285 411 253T438 211T485 200H600L591 150Q567 143 530 137T452 130ZM428 50Q511 50 579 85T693 188T756 350Q773 445 751 512T673 614T534 650Q452 650
384 615T269 512T206 350Q190 255 212 188T290 86T428 50Z" />
<glyph unicode="&#xaa;" horiz-adv-x="305" d="M194 395Q169 395 149 404T120 434T116 490Q126 546 160 568T239 590Q258 590 275 588T293 585L295 600Q300 623 287 634T248 645H168L177 693Q193 698 218 701T269 705Q333 705 362 685T380 600L345 400H275L269
420Q252 409 235 402T194 395ZM235 455Q250 455 260 457T271 460L283 530H248Q229 530 217 520T201 490Q198 475 207 465T235 455Z" />
<glyph unicode="&#xab;" horiz-adv-x="510" d="M398 20L264 250L479 480L554 425L394 253L393 247L493 75L398 20ZM198 20L64 250L279 480L354 425L194 253L193 247L293 75L198 20Z" />
<glyph unicode="&#xac;" horiz-adv-x="445" d="M372 240L374 335H89L103 415H488L457 240H372Z" />
<glyph unicode="&#xad;" horiz-adv-x="360" d="M75 260L89 340H389L375 260H75Z" />
<glyph unicode="&#xae;" horiz-adv-x="840" d="M416 -20Q304 -20 228 26T119 156T106 350Q126 460 187 543T341 673T546 720Q659 720 735 674T843 544T856 350Q837 240 776 157T622 27T416 -20ZM428 50Q511 50 579 85T693 188T756 350Q773 445 751 512T673 614T534
650Q452 650 384 615T269 512T206 350Q190 255 212 188T290 86T428 50ZM289 140L361 550Q389 558 423 564T510 570Q570 570 607 556T659 511T665 430Q658 388 641 363T605 326T568 305L624 140H509L465 285H425L399 140H289ZM437 355H472Q502 355 525 372T555 430Q562
468 545 484T498 500H463L437 355Z" />
<glyph unicode="&#xaf;" horiz-adv-x="280" d="M131 630L143 700H383L371 630H131Z" />
<glyph unicode="&#xb0;" horiz-adv-x="410" d="M273 390Q194 390 159 432T136 550Q150 625 200 667T330 710Q409 710 444 668T466 550Q453 475 403 433T273 390ZM286 460Q309 460 331 482T361 550Q369 595 355 617T317 640Q295 640 272 618T241 550Q234 505 249
483T286 460Z" />
<glyph unicode="&#xb1;" horiz-adv-x="450" d="M206 150L232 300H82L97 380H247L275 540H365L337 380H487L472 300H322L296 150H206ZM37 45L52 125H442L427 45H37Z" />
<glyph unicode="&#xb2;" horiz-adv-x="270" d="M100 400L111 465Q171 506 214 542T261 605Q264 620 255 632T223 645H153L162 694Q178 699 202 702T249 705Q309 705 332 680T346 605Q340 571 307 538T206 460H321L310 400H100Z" />
<glyph unicode="&#xb3;" horiz-adv-x="270" d="M179 395Q157 395 136 398T101 406L110 455H190Q213 455 225 465T241 490Q243 505 235 515T207 525H157L168 585H213Q232 585 241 594T253 615Q255 626 248 635T217 645H143L152 694Q167 699 190 702T239 705Q292
705 319 687T339 620Q335 594 317 579T283 560Q301 556 316 538T325 485Q316 433 280 414T179 395Z" />
<glyph unicode="&#xb4;" horiz-adv-x="190" d="M118 560L176 690H291L193 560H118Z" />
<glyph unicode="&#xb5;" horiz-adv-x="505" d="M29 -200L153 500H273L214 170Q205 118 225 89T275 60Q294 60 309 66T334 80L408 500H528L440 0H355L345 30H340Q318 11 296 1T243 -10Q221 -10 207 -1T187 15L149 -200H29Z" />
<glyph unicode="&#xb6;" horiz-adv-x="565" d="M189 -200L283 330Q189 330 147 379T120 515Q129 563 159 605T237 673T348 700H668L654 620H594L449 -200H339L484 620H444L299 -200H189Z" />
<glyph unicode="&#xb7;" horiz-adv-x="280" d="M131 290L152 410H272L251 290H131Z" />
<glyph unicode="&#xb8;" horiz-adv-x="215" d="M65 -170Q28 -170 11 -163T-7 -155L-1 -121H63Q86 -121 93 -115T102 -100Q104 -92 100 -86T76 -79H21L37 15H92L84 -30H99Q144 -30 163 -50T177 -100Q172 -130 143 -150T65 -170Z" />
<glyph unicode="&#xb9;" horiz-adv-x="200" d="M155 400L197 640H142L151 688Q167 693 195 696T253 700H293L240 400H155Z" />
<glyph unicode="&#xba;" horiz-adv-x="320" d="M229 395Q173 395 143 433T126 550Q140 629 184 667T284 705Q340 705 370 667T386 550Q373 471 329 433T229 395ZM240 455Q259 455 275 476T301 550Q311 603 302 624T273 645Q254 645 238 624T211 550Q202 498 211
477T240 455Z" />
<glyph unicode="&#xbb;" horiz-adv-x="510" d="M318 20L243 75L403 247L404 253L304 425L399 480L534 250L318 20ZM118 20L43 75L203 247L204 253L104 425L199 480L334 250L118 20Z" />
<glyph unicode="&#xbc;" horiz-adv-x="590" d="M40 0L553 700H663L150 0H40ZM425 0L434 55H294L305 115L477 300H562L530 115H555L544 55H519L510 0H425ZM380 115H445L460 200L380 115ZM175 400L217 640H162L171 688Q187 693 215 696T273 700H313L260 400H175Z" />
<glyph unicode="&#xbd;" horiz-adv-x="620" d="M50 0L563 700H673L160 0H50ZM350 0L361 65Q421 106 463 142T511 205Q513 220 505 232T473 245H403L411 294Q427 299 451 302T498 305Q558 305 581 280T596 205Q590 171 557 138T455 60H570L560 0H350ZM190 400L232
640H177L186 688Q202 693 230 696T288 700H328L275 400H190Z" />
<glyph unicode="&#xbe;" horiz-adv-x="605" d="M55 0L568 700H678L165 0H55ZM440 0L449 55H309L320 115L492 300H577L545 115H570L559 55H534L525 0H440ZM395 115H460L475 200L395 115ZM189 395Q167 395 146 398T111 406L120 455H200Q223 455 235 465T251 490Q253
505 245 515T217 525H167L178 585H223Q242 585 251 594T263 615Q265 626 258 635T227 645H153L162 694Q177 699 200 702T249 705Q302 705 329 687T349 620Q345 594 327 579T293 560Q311 556 326 538T335 485Q326 433 290 414T189 395Z" />
<glyph unicode="&#xbf;" horiz-adv-x="395" d="M223 -10Q129 -10 87 40T61 180Q70 231 91 266T141 329T197 383T247 440T280 515H380Q370 459 350 422T304 358T253 306T208 252T181 180Q171 124 194 95T266 65H396L386 10Q363 3 320 -3T223 -10ZM284 590L305 710H425L404
590H284Z" />
<glyph unicode="&#xc0;" horiz-adv-x="540" d="M15 0L318 700H468L525 0H400L386 175H214L140 0H15ZM244 255H383L367 540H363L244 255ZM357 760L289 890H394L427 760H357Z" />
<glyph unicode="&#xc1;" horiz-adv-x="540" d="M15 0L318 700H468L525 0H400L386 175H214L140 0H15ZM244 255H383L367 540H363L244 255ZM346 760L404 890H519L421 760H346Z" />
<glyph unicode="&#xc2;" horiz-adv-x="540" d="M15 0L318 700H468L525 0H400L386 175H214L140 0H15ZM244 255H383L367 540H363L244 255ZM258 750L361 880H466L523 750H446L403 820L334 750H258Z" />
<glyph unicode="&#xc3;" horiz-adv-x="540" d="M15 0L318 700H468L525 0H400L386 175H214L140 0H15ZM244 255H383L367 540H363L244 255ZM448 760Q426 760 413 772T391 797T369 810Q345 810 335 770H275Q289 838 315 864T376 890Q393 890 404 883T423 865T438 848T455
840Q479 840 489 880H550Q535 813 509 787T448 760Z" />
<glyph unicode="&#xc4;" horiz-adv-x="540" d="M15 0L318 700H468L525 0H400L386 175H214L140 0H15ZM244 255H383L367 540H363L244 255ZM427 770L448 890H558L537 770H427ZM267 770L288 890H398L377 770H267Z" />
<glyph unicode="&#xc5;" horiz-adv-x="540" d="M15 0L318 700H468L525 0H400L386 175H214L140 0H15ZM244 255H383L367 540H363L244 255ZM396 735Q355 735 332 759T316 820Q323 858 354 881T426 905Q467 905 490 882T506 820Q499 783 468 759T396 735ZM406 790Q417
790 427 797T441 820Q443 835 435 842T416 850Q405 850 394 843T381 820Q378 805 386 798T406 790Z" />
<glyph unicode="&#xc6;" horiz-adv-x="755" d="M0 0L363 700H838L824 620H579L541 405H756L742 325H527L484 80H729L715 0H350L380 175H210L119 0H0ZM251 255H394L459 620H440L251 255Z" />
<glyph unicode="&#xc7;" horiz-adv-x="455" d="M278 -10Q201 -10 154 21T95 131T106 350Q131 490 171 568T267 678T395 710Q448 710 489 704T551 690L541 635H421Q379 635 342 611T276 525T226 350Q207 238 215 176T253 90T331 65H451L441 10Q418 3 375 -3T278
-10ZM249 -170Q212 -170 195 -163T177 -155L183 -121H247Q270 -121 277 -115T286 -100Q288 -92 284 -86T260 -79H205L221 15H276L268 -30H283Q328 -30 347 -50T361 -100Q356 -130 327 -150T249 -170Z" />
<glyph unicode="&#xc8;" horiz-adv-x="475" d="M70 0L193 700H558L544 620H299L261 405H476L462 325H247L204 80H449L435 0H70ZM353 760L285 890H390L423 760H353Z" />
<glyph unicode="&#xc9;" horiz-adv-x="475" d="M70 0L193 700H558L544 620H299L261 405H476L462 325H247L204 80H449L435 0H70ZM325 760L383 890H498L400 760H325Z" />
<glyph unicode="&#xca;" horiz-adv-x="475" d="M70 0L193 700H558L544 620H299L261 405H476L462 325H247L204 80H449L435 0H70ZM246 750L349 880H454L511 750H434L391 820L322 750H246Z" />
<glyph unicode="&#xcb;" horiz-adv-x="475" d="M70 0L193 700H558L544 620H299L261 405H476L462 325H247L204 80H449L435 0H70ZM411 770L432 890H542L521 770H411ZM251 770L272 890H382L361 770H251Z" />
<glyph unicode="&#xcc;" horiz-adv-x="260" d="M70 0L193 700H313L190 0H70ZM217 760L149 890H254L287 760H217Z" />
<glyph unicode="&#xcd;" horiz-adv-x="260" d="M70 0L193 700H313L190 0H70ZM214 760L272 890H387L289 760H214Z" />
<glyph unicode="&#xce;" horiz-adv-x="235" d="M55 0L178 700H298L175 0H55ZM117 750L220 880H325L382 750H305L261 820L193 750H117Z" />
<glyph unicode="&#xcf;" horiz-adv-x="260" d="M70 0L193 700H313L190 0H70ZM295 770L316 890H426L405 770H295ZM135 770L156 890H266L245 770H135Z" />
<glyph unicode="&#xd0;" horiz-adv-x="560" d="M258 -10Q202 -10 162 -6T86 10L140 315H65L79 395H154L206 690Q246 701 287 705T385 710Q468 710 518 676T584 564T576 350Q553 215 510 136T404 24T258 -10ZM216 65H271Q311 65 346 89T409 176T456 350Q476 463
470 524T437 610T371 635H316L274 395H379L365 315H260L216 65Z" />
<glyph unicode="&#xd1;" horiz-adv-x="570" d="M70 0L193 700H313L422 240H427L508 700H623L500 0H380L271 460H266L185 0H70ZM488 760Q466 760 453 772T431 797T409 810Q385 810 375 770H315Q329 838 355 864T416 890Q433 890 444 883T463 865T478 848T495 840Q519
840 529 880H590Q575 813 549 787T488 760Z" />
<glyph unicode="&#xd2;" horiz-adv-x="550" d="M273 -10Q221 -10 182 8T119 68T92 179T106 350Q130 485 172 563T272 676T400 710Q453 710 492 692T553 632T580 521T566 350Q543 215 501 136T401 24T273 -10ZM285 60Q313 60 342 84T399 172T446 350Q461 436 462
492T453 581T425 626T387 640Q360 640 331 616T274 528T226 350Q211 264 211 208T220 119T247 74T285 60ZM357 760L289 890H394L427 760H357Z" />
<glyph unicode="&#xd3;" horiz-adv-x="550" d="M273 -10Q221 -10 182 8T119 68T92 179T106 350Q130 485 172 563T272 676T400 710Q453 710 492 692T553 632T580 521T566 350Q543 215 501 136T401 24T273 -10ZM285 60Q313 60 342 84T399 172T446 350Q461 436 462
492T453 581T425 626T387 640Q360 640 331 616T274 528T226 350Q211 264 211 208T220 119T247 74T285 60ZM356 760L414 890H529L431 760H356Z" />
<glyph unicode="&#xd4;" horiz-adv-x="550" d="M273 -10Q221 -10 182 8T119 68T92 179T106 350Q130 485 172 563T272 676T400 710Q453 710 492 692T553 632T580 521T566 350Q543 215 501 136T401 24T273 -10ZM285 60Q313 60 342 84T399 172T446 350Q461 436 462
492T453 581T425 626T387 640Q360 640 331 616T274 528T226 350Q211 264 211 208T220 119T247 74T285 60ZM268 750L371 880H476L533 750H456L413 820L344 750H268Z" />
<glyph unicode="&#xd5;" horiz-adv-x="550" d="M273 -10Q221 -10 182 8T119 68T92 179T106 350Q130 485 172 563T272 676T400 710Q453 710 492 692T553 632T580 521T566 350Q543 215 501 136T401 24T273 -10ZM285 60Q313 60 342 84T399 172T446 350Q461 436 462
492T453 581T425 626T387 640Q360 640 331 616T274 528T226 350Q211 264 211 208T220 119T247 74T285 60ZM458 760Q436 760 423 772T401 797T379 810Q355 810 345 770H285Q299 838 325 864T386 890Q403 890 414 883T433 865T448 848T465 840Q489 840 499 880H560Q545
813 519 787T458 760Z" />
<glyph unicode="&#xd6;" horiz-adv-x="550" d="M273 -10Q221 -10 182 8T119 68T92 179T106 350Q130 485 172 563T272 676T400 710Q453 710 492 692T553 632T580 521T566 350Q543 215 501 136T401 24T273 -10ZM285 60Q313 60 342 84T399 172T446 350Q461 436 462
492T453 581T425 626T387 640Q360 640 331 616T274 528T226 350Q211 264 211 208T220 119T247 74T285 60ZM437 770L458 890H568L547 770H437ZM277 770L298 890H408L387 770H277Z" />
<glyph unicode="&#xd7;" horiz-adv-x="420" d="M128 160L78 220L208 330L117 440L188 500L278 390L408 500L457 440L328 330L418 220L348 160L257 270L128 160Z" />
<glyph unicode="&#xd8;" horiz-adv-x="550" d="M273 -10Q222 -10 184 7T122 62L76 10L33 50L100 125Q91 166 92 221T106 350Q130 485 172 563T272 676T400 710Q450 710 488 693T550 637L596 690L639 650L573 575Q581 534 580 479T566 350Q543 215 501 136T401
24T273 -10ZM285 60Q313 60 342 84T399 172T446 350Q451 377 454 400T459 445L211 164Q216 105 237 83T285 60ZM213 254L460 535Q456 595 435 617T387 640Q360 640 331 616T274 528T226 350Q222 323 219 299T213 254Z" />
<glyph unicode="&#xd9;" horiz-adv-x="550" d="M273 -10Q201 -10 158 15T100 95T102 240L183 700H303L222 240Q210 170 215 131T239 76T285 60Q313 60 337 76T380 131T412 240L493 700H613L532 240Q516 150 483 95T398 15T273 -10ZM361 760L293 890H398L431 760H361Z" />
<glyph unicode="&#xda;" horiz-adv-x="550" d="M273 -10Q201 -10 158 15T100 95T102 240L183 700H303L222 240Q210 170 215 131T239 76T285 60Q313 60 337 76T380 131T412 240L493 700H613L532 240Q516 150 483 95T398 15T273 -10ZM349 760L407 890H522L424 760H349Z" />
<glyph unicode="&#xdb;" horiz-adv-x="550" d="M273 -10Q201 -10 158 15T100 95T102 240L183 700H303L222 240Q210 170 215 131T239 76T285 60Q313 60 337 76T380 131T412 240L493 700H613L532 240Q516 150 483 95T398 15T273 -10ZM261 750L364 880H469L526 750H449L406
820L337 750H261Z" />
<glyph unicode="&#xdc;" horiz-adv-x="550" d="M273 -10Q201 -10 158 15T100 95T102 240L183 700H303L222 240Q210 170 215 131T239 76T285 60Q313 60 337 76T380 131T412 240L493 700H613L532 240Q516 150 483 95T398 15T273 -10ZM430 770L451 890H561L540 770H430ZM270
770L291 890H401L380 770H270Z" />
<glyph unicode="&#xdd;" horiz-adv-x="480" d="M180 0L217 210L128 700H253L303 358L473 700H598L337 210L300 0H180ZM319 760L377 890H492L394 760H319Z" />
<glyph unicode="&#xde;" horiz-adv-x="525" d="M68 -10L195 710H315L301 635Q458 628 516 555T551 350Q528 219 444 146T201 65L188 -10H68ZM214 140Q297 144 355 198T431 350Q448 448 409 502T288 560L214 140Z" />
<glyph unicode="&#xdf;" horiz-adv-x="550" d="M338 -10Q316 -10 287 -4T236 10L245 60H330Q364 60 392 77T428 135Q433 165 420 185T386 221T343 256T309 300T304 365Q310 399 330 422T374 463T417 502T441 550Q449 595 428 615T381 635Q347 635 316 603T272
495L185 0H65L152 495Q171 604 232 657T395 710Q489 710 531 664T561 550Q554 511 534 487T490 445T448 409T424 365Q420 344 434 328T469 294T512 256T544 206T548 135Q538 78 511 47T440 3T338 -10Z" />
<glyph unicode="&#xe0;" horiz-adv-x="490" d="M208 -10Q158 -10 124 15T79 98T84 250Q101 345 134 402T221 484T349 510Q402 510 438 503T509 480L425 0H340L330 30H325Q306 15 278 3T208 -10ZM260 60Q279 60 294 66T319 80L382 440H337Q307 440 282 424T237
367T204 250Q191 175 195 134T217 77T260 60ZM318 560L250 690H355L388 560H318Z" />
<glyph unicode="&#xe1;" horiz-adv-x="490" d="M208 -10Q158 -10 124 15T79 98T84 250Q101 345 134 402T221 484T349 510Q402 510 438 503T509 480L425 0H340L330 30H325Q306 15 278 3T208 -10ZM260 60Q279 60 294 66T319 80L382 440H337Q307 440 282 424T237
367T204 250Q191 175 195 134T217 77T260 60ZM319 560L377 690H492L394 560H319Z" />
<glyph unicode="&#xe2;" horiz-adv-x="490" d="M208 -10Q158 -10 124 15T79 98T84 250Q101 345 134 402T221 484T349 510Q402 510 438 503T509 480L425 0H340L330 30H325Q306 15 278 3T208 -10ZM260 60Q279 60 294 66T319 80L382 440H337Q307 440 282 424T237
367T204 250Q191 175 195 134T217 77T260 60ZM231 550L334 680H439L496 550H419L376 620L307 550H231Z" />
<glyph unicode="&#xe3;" horiz-adv-x="490" d="M208 -10Q158 -10 124 15T79 98T84 250Q101 345 134 402T221 484T349 510Q402 510 438 503T509 480L425 0H340L330 30H325Q306 15 278 3T208 -10ZM260 60Q279 60 294 66T319 80L382 440H337Q307 440 282 424T237
367T204 250Q191 175 195 134T217 77T260 60ZM421 560Q399 560 386 572T364 597T342 610Q318 610 308 570H248Q262 638 288 664T349 690Q366 690 377 683T396 665T411 648T428 640Q452 640 462 680H523Q508 613 482 587T421 560Z" />
<glyph unicode="&#xe4;" horiz-adv-x="490" d="M208 -10Q158 -10 124 15T79 98T84 250Q101 345 134 402T221 484T349 510Q402 510 438 503T509 480L425 0H340L330 30H325Q306 15 278 3T208 -10ZM260 60Q279 60 294 66T319 80L382 440H337Q307 440 282 424T237
367T204 250Q191 175 195 134T217 77T260 60ZM400 570L421 690H531L510 570H400ZM240 570L261 690H371L350 570H240Z" />
<glyph unicode="&#xe5;" horiz-adv-x="490" d="M208 -10Q158 -10 124 15T79 98T84 250Q101 345 134 402T221 484T349 510Q402 510 438 503T509 480L425 0H340L330 30H325Q306 15 278 3T208 -10ZM260 60Q279 60 294 66T319 80L382 440H337Q307 440 282 424T237
367T204 250Q191 175 195 134T217 77T260 60ZM369 535Q328 535 305 559T289 620Q296 658 327 681T399 705Q440 705 463 682T479 620Q472 583 441 559T369 535ZM379 590Q390 590 400 597T414 620Q416 635 408 642T389 650Q378 650 367 643T354 620Q351 605 359 598T379
590Z" />
<glyph unicode="&#xe6;" horiz-adv-x="715" d="M203 -10Q156 -10 121 2T70 47T64 140Q75 200 102 232T169 277T256 290Q279 290 300 287T339 280L349 340Q360 400 336 420T262 440H162L171 490Q195 498 229 504T294 510Q350 510 383 493T434 450Q461 476 495 493T579
510Q673 510 717 471T748 360Q735 285 678 250T527 215H447Q432 129 456 95T545 60H655L646 10Q623 3 587 -3T513 -10Q449 -10 415 7T363 50Q336 24 300 7T203 -10ZM245 60Q258 60 269 63T289 70T304 80L328 220H273Q247 220 220 203T184 140Q177 95 198 78T245
60ZM460 285H540Q574 285 597 304T628 360Q636 405 620 425T573 445Q546 445 525 432T488 385T460 285Z" />
<glyph unicode="&#xe7;" horiz-adv-x="395" d="M248 -10Q178 -10 136 15T81 98T84 250Q101 345 133 402T215 484T329 510Q367 510 401 504T456 490L447 440H337Q307 440 282 424T237 367T204 250Q191 175 196 134T223 77T280 60H390L381 10Q358 3 322 -3T248 -10ZM212
-170Q175 -170 158 -163T140 -155L146 -121H210Q233 -121 240 -115T249 -100Q251 -92 247 -86T223 -79H168L184 15H239L231 -30H246Q291 -30 310 -50T324 -100Q319 -130 290 -150T212 -170Z" />
<glyph unicode="&#xe8;" horiz-adv-x="465" d="M263 -10Q186 -10 141 15T81 98T84 250Q101 345 134 402T218 484T339 510Q425 510 467 468T497 355Q484 280 427 243T276 205H196Q182 126 206 93T295 60H405L396 10Q373 3 337 -3T263 -10ZM208 275H288Q322 275
346 296T377 355Q385 400 369 422T323 445Q296 445 275 432T237 382T208 275ZM297 560L229 690H334L367 560H297Z" />
<glyph unicode="&#xe9;" horiz-adv-x="465" d="M263 -10Q186 -10 141 15T81 98T84 250Q101 345 134 402T218 484T339 510Q425 510 467 468T497 355Q484 280 427 243T276 205H196Q182 126 206 93T295 60H405L396 10Q373 3 337 -3T263 -10ZM208 275H288Q322 275
346 296T377 355Q385 400 369 422T323 445Q296 445 275 432T237 382T208 275ZM298 560L356 690H471L373 560H298Z" />
<glyph unicode="&#xea;" horiz-adv-x="465" d="M263 -10Q186 -10 141 15T81 98T84 250Q101 345 134 402T218 484T339 510Q425 510 467 468T497 355Q484 280 427 243T276 205H196Q182 126 206 93T295 60H405L396 10Q373 3 337 -3T263 -10ZM208 275H288Q322 275
346 296T377 355Q385 400 369 422T323 445Q296 445 275 432T237 382T208 275ZM210 550L313 680H418L475 550H398L355 620L286 550H210Z" />
<glyph unicode="&#xeb;" horiz-adv-x="465" d="M263 -10Q186 -10 141 15T81 98T84 250Q101 345 134 402T218 484T339 510Q425 510 467 468T497 355Q484 280 427 243T276 205H196Q182 126 206 93T295 60H405L396 10Q373 3 337 -3T263 -10ZM208 275H288Q322 275
346 296T377 355Q385 400 369 422T323 445Q296 445 275 432T237 382T208 275ZM379 570L400 690H510L489 570H379ZM219 570L240 690H350L329 570H219Z" />
<glyph unicode="&#xec;" horiz-adv-x="260" d="M70 0L158 500H278L190 0H70ZM183 560L115 690H220L253 560H183Z" />
<glyph unicode="&#xed;" horiz-adv-x="260" d="M70 0L158 500H278L190 0H70ZM172 560L230 690H345L247 560H172Z" />
<glyph unicode="&#xee;" horiz-adv-x="260" d="M70 0L158 500H278L190 0H70ZM340 550L443 680H548L605 550H528L485 620L416 550H340Z" />
<glyph unicode="&#xef;" horiz-adv-x="260" d="M70 0L158 500H278L190 0H70ZM509 570L530 690H640L619 570H509ZM349 570L370 690H480L459 570H349Z" />
<glyph unicode="&#xf0;" horiz-adv-x="485" d="M238 -10Q141 -10 99 44T77 215Q98 331 157 385T307 440Q337 440 358 433T393 415Q400 453 400 485T390 539L329 479L286 520L354 590Q332 613 290 633T195 660L210 710Q277 706 331 691T419 650L486 717L529 676L462
611Q493 573 505 505T501 350L477 215Q457 99 397 45T238 -10ZM249 55Q279 55 310 90T357 215L381 350Q375 358 362 364T325 370Q280 370 247 336T197 215Q187 155 192 120T213 70T249 55Z" />
<glyph unicode="&#xf1;" horiz-adv-x="505" d="M65 0L153 500H238L247 470H252Q271 485 300 497T374 510Q417 510 449 497T497 450T501 350L440 0H320L381 350Q388 385 380 404T354 432T317 440Q298 440 283 434T259 420L185 0H65ZM413 560Q391 560 378 572T356
597T334 610Q310 610 300 570H240Q254 638 280 664T341 690Q358 690 369 683T388 665T403 648T420 640Q444 640 454 680H515Q500 613 474 587T413 560Z" />
<glyph unicode="&#xf2;" horiz-adv-x="480" d="M238 -10Q173 -10 133 15T80 98T84 250Q101 345 133 402T215 484T329 510Q394 510 434 485T487 402T484 250Q467 155 434 98T352 16T238 -10ZM249 55Q272 55 293 71T332 130T364 250Q378 328 375 370T356 428T318
445Q296 445 275 429T236 370T204 250Q190 173 193 131T211 72T249 55ZM284 560L216 690H321L354 560H284Z" />
<glyph unicode="&#xf3;" horiz-adv-x="480" d="M238 -10Q173 -10 133 15T80 98T84 250Q101 345 133 402T215 484T329 510Q394 510 434 485T487 402T484 250Q467 155 434 98T352 16T238 -10ZM249 55Q272 55 293 71T332 130T364 250Q378 328 375 370T356 428T318
445Q296 445 275 429T236 370T204 250Q190 173 193 131T211 72T249 55ZM285 560L343 690H458L360 560H285Z" />
<glyph unicode="&#xf4;" horiz-adv-x="480" d="M238 -10Q173 -10 133 15T80 98T84 250Q101 345 133 402T215 484T329 510Q394 510 434 485T487 402T484 250Q467 155 434 98T352 16T238 -10ZM249 55Q272 55 293 71T332 130T364 250Q378 328 375 370T356 428T318
445Q296 445 275 429T236 370T204 250Q190 173 193 131T211 72T249 55ZM197 550L300 680H405L462 550H385L342 620L273 550H197Z" />
<glyph unicode="&#xf5;" horiz-adv-x="480" d="M238 -10Q173 -10 133 15T80 98T84 250Q101 345 133 402T215 484T329 510Q394 510 434 485T487 402T484 250Q467 155 434 98T352 16T238 -10ZM249 55Q272 55 293 71T332 130T364 250Q378 328 375 370T356 428T318
445Q296 445 275 429T236 370T204 250Q190 173 193 131T211 72T249 55ZM387 560Q365 560 352 572T330 597T308 610Q284 610 274 570H214Q228 638 254 664T315 690Q332 690 343 683T362 665T377 648T394 640Q418 640 428 680H489Q474 613 448 587T387 560Z" />
<glyph unicode="&#xf6;" horiz-adv-x="480" d="M238 -10Q173 -10 133 15T80 98T84 250Q101 345 133 402T215 484T329 510Q394 510 434 485T487 402T484 250Q467 155 434 98T352 16T238 -10ZM249 55Q272 55 293 71T332 130T364 250Q378 328 375 370T356 428T318
445Q296 445 275 429T236 370T204 250Q190 173 193 131T211 72T249 55ZM366 570L387 690H497L476 570H366ZM206 570L227 690H337L316 570H206Z" />
<glyph unicode="&#xf7;" horiz-adv-x="450" d="M74 255L90 345H480L464 255H74ZM189 85L209 195H309L289 85H189ZM246 405L265 515H365L346 405H246Z" />
<glyph unicode="&#xf8;" horiz-adv-x="490" d="M243 -10Q196 -10 162 2T107 43L71 10L35 60L83 104Q79 133 80 169T89 250Q106 345 138 402T220 484T334 510Q381 510 415 498T469 456L506 490L542 440L493 395Q499 367 498 331T489 250Q472 155 439 98T357 16T243
-10ZM254 55Q277 55 298 71T337 130T369 250Q371 260 372 269T374 287L198 126Q201 86 216 71T254 55ZM202 213L378 374Q375 415 360 430T323 445Q301 445 280 429T241 370T209 250Q208 241 206 232T202 213Z" />
<glyph unicode="&#xf9;" horiz-adv-x="505" d="M218 -10Q176 -10 143 3T95 50T91 150L153 500H273L211 150Q202 98 223 79T275 60Q294 60 309 66T334 80L408 500H528L440 0H355L345 30H340Q321 15 292 3T218 -10ZM305 560L237 690H342L375 560H305Z" />
<glyph unicode="&#xfa;" horiz-adv-x="505" d="M218 -10Q176 -10 143 3T95 50T91 150L153 500H273L211 150Q202 98 223 79T275 60Q294 60 309 66T334 80L408 500H528L440 0H355L345 30H340Q321 15 292 3T218 -10ZM295 560L353 690H468L370 560H295Z" />
<glyph unicode="&#xfb;" horiz-adv-x="505" d="M218 -10Q176 -10 143 3T95 50T91 150L153 500H273L211 150Q202 98 223 79T275 60Q294 60 309 66T334 80L408 500H528L440 0H355L345 30H340Q321 15 292 3T218 -10ZM219 550L322 680H427L484 550H407L364 620L295 550H219Z" />
<glyph unicode="&#xfc;" horiz-adv-x="505" d="M218 -10Q176 -10 143 3T95 50T91 150L153 500H273L211 150Q202 98 223 79T275 60Q294 60 309 66T334 80L408 500H528L440 0H355L345 30H340Q321 15 292 3T218 -10ZM376 570L397 690H507L486 570H376ZM216 570L237
690H347L326 570H216Z" />
<glyph unicode="&#xfd;" horiz-adv-x="505" d="M187 -210Q150 -210 116 -204T61 -190L70 -140H180Q236 -140 271 -105T323 20Q302 5 275 -2T218 -10Q176 -10 143 3T95 50T91 150L153 500H273L211 150Q202 98 223 79T275 60Q294 60 309 66T334 80L408 500H528L447
40Q431 -50 398 -105T312 -185T187 -210ZM297 560L355 690H470L372 560H297Z" />
<glyph unicode="&#xfe;" horiz-adv-x="495" d="M34 -200L193 700H313L275 485Q293 496 315 503T364 510Q419 510 455 485T503 402T499 250Q482 155 450 98T373 16T273 -10Q247 -10 227 -3T192 15L154 -200H34ZM255 60Q280 60 303 76T346 134T379 250Q392 325 387
366T365 424T322 440Q303 440 288 434T264 420L204 80Q210 73 223 67T255 60Z" />
<glyph unicode="&#xff;" horiz-adv-x="505" d="M187 -210Q150 -210 116 -204T61 -190L70 -140H180Q236 -140 271 -105T323 20Q302 5 275 -2T218 -10Q176 -10 143 3T95 50T91 150L153 500H273L211 150Q202 98 223 79T275 60Q294 60 309 66T334 80L408 500H528L447
40Q431 -50 398 -105T312 -185T187 -210ZM378 570L399 690H509L488 570H378ZM218 570L239 690H349L328 570H218Z" />
<glyph unicode="&#x2013;" horiz-adv-x="480" d="M72 240L86 320H506L492 240H72Z" />
<glyph unicode="&#x2014;" horiz-adv-x="660" d="M72 240L86 320H686L672 240H72Z" />
<glyph unicode="&#x2018;" horiz-adv-x="195" d="M123 475L204 705H284L243 475H123Z" />
<glyph unicode="&#x2019;" horiz-adv-x="195" d="M123 475L164 705H284L203 475H123Z" />
<glyph unicode="&#x201a;" horiz-adv-x="195" d="M18 -120L59 110H179L98 -120H18Z" />
<glyph unicode="&#x201c;" horiz-adv-x="365" d="M288 475L369 705H449L408 475H288ZM118 475L199 705H279L238 475H118Z" />
<glyph unicode="&#x201d;" horiz-adv-x="365" d="M293 475L334 705H454L373 475H293ZM123 475L164 705H284L203 475H123Z" />
<glyph unicode="&#x201e;" horiz-adv-x="365" d="M188 -120L229 110H349L268 -120H188ZM18 -120L59 110H179L98 -120H18Z" />
<glyph unicode="&#x2022;" horiz-adv-x="270" d="M90 260L122 439H302L270 260H90Z" />
<glyph unicode="&#x2039;" horiz-adv-x="325" d="M210 0L64 250L298 500L373 445L194 253L193 247L304 55L210 0Z" />
<glyph unicode="&#x203a;" horiz-adv-x="325" d="M115 0L39 55L218 247L219 253L108 445L203 500L349 250L115 0Z" />
</font>
</defs>
</svg>
